<?xml version="1.0" standalone="no"?>
<!DOCTYPE svg PUBLIC "-//W3C//DTD SVG 1.1//EN" "http://www.w3.org/Graphics/SVG/1.1/DTD/svg11.dtd" >
<svg xmlns="http://www.w3.org/2000/svg">
<metadata></metadata>
<defs>
<font id="fzzhengheis-el-gbregular" horiz-adv-x="2048" vert-adv-y="2048" >
<font-face units-per-em="2048" ascent="1632" descent="-416" />
<missing-glyph horiz-adv-x="672" />
<glyph horiz-adv-x="0" vert-adv-y="0" />
<glyph horiz-adv-x="682" />
<glyph unicode=" "  horiz-adv-x="672" />
<glyph unicode="&#x09;" horiz-adv-x="672" />
<glyph unicode="&#xa0;" horiz-adv-x="672" />
<glyph unicode="!" horiz-adv-x="400" d="M120 40h168v-144h-168v144zM120 1568h168l-32 -1232h-104z" />
<glyph unicode="&#x22;" horiz-adv-x="672" d="M80 1624h176l-32 -616h-104zM432 1624h176l-40 -616h-104z" />
<glyph unicode="#" horiz-adv-x="1456" d="M32 424v96h336l120 504h-312v88h336l112 472h120l-112 -472h360l112 472h128l-120 -472h296v-88h-320l-120 -504h296v-96h-320l-136 -552h-120l136 552h-360l-136 -552h-120l136 552h-312zM488 520h352l128 504h-360z" />
<glyph unicode="$" horiz-adv-x="1312" d="M48 248v144q184 -400 544 -416v736q-528 80 -512 440q24 408 512 448v184h120v-184q440 -48 512 -472h-136q-72 336 -376 384v-704q552 -96 544 -464q0 -440 -544 -464v-216h-120v216q-408 40 -544 368zM216 1152q-8 -264 376 -328v688q-360 -48 -376 -360zM712 -24 q416 24 416 376q-8 272 -416 344v-720z" />
<glyph unicode="%" horiz-adv-x="2032" d="M64 1136q8 448 376 456q352 -16 368 -456q-8 -432 -376 -440q-352 24 -368 440zM184 1136q16 -328 256 -352q240 16 248 360q-8 352 -248 360q-248 -8 -256 -368zM456 -200h136l976 1792h-136zM1216 232q8 448 376 464q352 -16 368 -464q-8 -408 -384 -424 q-344 24 -360 424zM1336 232q16 -312 248 -336q248 16 256 344q0 352 -256 360q-240 -8 -248 -368z" />
<glyph unicode="&#x26;" horiz-adv-x="1720" d="M88 304q0 352 384 504q-168 216 -160 408q32 352 400 376q400 -16 416 -352q24 -344 -456 -480h-16l8 -8q176 -200 544 -480q120 200 168 512h128q-56 -368 -192 -584q88 -64 304 -200q40 -24 64 -40v-96q-248 144 -424 264q-216 -264 -640 -264q-504 16 -528 440z M224 320q16 -352 408 -368q336 0 528 240q-336 232 -576 488l-32 40q-336 -128 -328 -400zM440 1208q-8 -152 144 -360l16 8q416 112 400 376q-8 264 -288 272q-248 -24 -272 -296z" />
<glyph unicode="'" horiz-adv-x="320" d="M72 1624h176l-32 -624h-104z" />
<glyph unicode="(" horiz-adv-x="648" d="M80 688q16 640 424 1000h120q-416 -416 -408 -1000q-16 -584 408 -1000h-120q-408 360 -424 1000z" />
<glyph unicode=")" horiz-adv-x="640" d="M32 -312q424 432 416 1000q8 576 -416 1000h120q408 -360 424 -1000q-16 -640 -424 -1000h-120z" />
<glyph unicode="*" horiz-adv-x="992" d="M48 1216l48 144l360 -144l-32 384h152l-40 -384l368 136l40 -136l-392 -72l280 -296l-120 -88l-216 344l-208 -336l-120 88l272 288z" />
<glyph unicode="+" horiz-adv-x="1344" d="M72 688v88h544v528h120v-528h544v-88h-544v-560h-120v560h-544z" />
<glyph unicode="," horiz-adv-x="368" d="M56 -344q152 128 152 336h-104v184h192v-176q16 -264 -240 -432v88z" />
<glyph unicode="-" horiz-adv-x="1192" d="M48 704v88h1096v-88h-1096z" />
<glyph unicode="." horiz-adv-x="320" d="M64 -8v184h192v-184h-192z" />
<glyph unicode="/" horiz-adv-x="664" d="M16 -280l504 1944h136l-504 -1944h-136z" />
<glyph unicode="0" horiz-adv-x="1312" d="M80 720q8 848 576 872q576 0 576 -872q-8 -840 -568 -856q-576 16 -584 856zM224 720q0 -768 432 -768q440 -8 432 768q8 792 -432 784q-424 -8 -432 -784z" />
<glyph unicode="1" horiz-adv-x="912" d="M88 976v88q368 176 496 504h136v-1680h-136v1408q-152 -192 -496 -320z" />
<glyph unicode="2" horiz-adv-x="1288" d="M72 -16q176 344 576 616q432 296 408 520q-8 376 -384 384q-328 -24 -440 -352h-144q144 440 600 440q496 -24 512 -448q40 -296 -456 -624q-376 -248 -528 -536h992v-96h-1136v96z" />
<glyph unicode="3" horiz-adv-x="1344" d="M104 176v136q184 -360 552 -352q440 0 440 400q16 352 -512 344h-96v104h96q440 8 448 352q-16 328 -368 344q-328 -8 -408 -352h-136q88 440 544 440q496 -8 512 -440q-16 -304 -320 -376q368 -80 384 -424q-24 -456 -568 -480q-400 0 -568 304z" />
<glyph unicode="4" horiz-adv-x="1320" d="M64 296v88l840 1184h128v-1184h232v-88h-232v-408h-128v408h-840zM200 384h704v992z" />
<glyph unicode="5" horiz-adv-x="1328" d="M88 168v120q216 -344 568 -328q432 8 440 448q-16 424 -464 440h-472v712h1024v-88h-888v-536h368q560 -16 576 -512q-16 -536 -568 -552q-408 -8 -584 296z" />
<glyph unicode="6" horiz-adv-x="1320" d="M80 648q0 960 640 952q392 -8 512 -400h-136q-80 304 -384 312q-496 -8 -504 -800q176 264 512 256q488 -32 528 -544q-32 -520 -552 -552q-624 -8 -616 776zM224 448q8 -472 456 -488q416 8 424 440q-16 464 -408 480q-432 -32 -472 -432z" />
<glyph unicode="7" horiz-adv-x="1224" d="M64 1464v88h1112v-88q-568 -768 -688 -1560h-144q96 720 688 1560h-968z" />
<glyph unicode="8" horiz-adv-x="1320" d="M64 328q32 336 352 440q-288 120 -304 376q40 416 544 448q504 -40 552 -456q-16 -256 -312 -368h8q328 -120 344 -456q-24 -432 -584 -448q-576 16 -600 464zM208 320q16 -352 456 -368q432 8 440 360q-8 360 -448 408q-440 -48 -448 -400zM256 1160q16 -312 408 -352 q384 48 400 344q-24 328 -408 352q-376 -24 -400 -344z" />
<glyph unicode="9" horiz-adv-x="1312" d="M72 1024q32 544 552 576q624 8 616 -800q24 -984 -616 -936q-352 0 -520 264v120q200 -304 528 -296q488 -8 472 784q-152 -264 -496 -256q-504 32 -536 544zM216 1040q16 -448 424 -464q432 32 448 440q-24 472 -440 496q-416 -16 -432 -472z" />
<glyph unicode=":" horiz-adv-x="344" d="M80 0v184h192v-184h-192zM80 896v200h192v-200h-192z" />
<glyph unicode=";" horiz-adv-x="408" d="M64 -344q152 120 144 336h-96v184h192v-176q16 -264 -240 -432v88zM112 896v200h192v-200h-192z" />
<glyph unicode="&#x3c;" horiz-adv-x="1240" d="M56 680v104l1128 664v-144l-1016 -568l1016 -592v-136z" />
<glyph unicode="=" horiz-adv-x="1328" d="M72 400v96h1184v-96h-1184zM72 960v88h1184v-88h-1184z" />
<glyph unicode="&#x3e;" horiz-adv-x="1256" d="M72 8v144l1016 584l-1016 568v144l1120 -664v-104z" />
<glyph unicode="?" horiz-adv-x="1240" d="M56 1128q128 472 600 464q480 -24 520 -424q24 -272 -336 -464q-184 -112 -176 -312v-72h-136v80q-8 224 240 384q288 184 264 368q-32 328 -376 352q-352 8 -464 -376h-136zM520 48v-152h168v152h-168z" />
<glyph unicode="@" horiz-adv-x="1992" d="M72 584q64 936 984 1000q872 -32 912 -856q-40 -600 -496 -640q-200 16 -200 232q-120 -248 -408 -240q-336 16 -344 464q32 560 560 584h360l-64 -672q-40 -288 128 -272q320 48 352 536q-32 744 -808 776q-800 -72 -856 -904q32 -816 864 -856q448 0 760 280v-80 q-272 -296 -776 -288q-928 40 -968 936zM640 528q0 -352 264 -360q328 32 376 480l40 392h-248q-416 -24 -432 -512z" />
<glyph unicode="A" horiz-adv-x="1648" d="M8 -104l736 1672h144l744 -1672h-144l-240 544h-856l-240 -544h-144zM432 528h776l-384 912z" />
<glyph unicode="B" horiz-adv-x="1456" d="M104 -112v1672h672q544 0 545 -389q0 -6 -1 -11q0 -328 -344 -400q408 -64 416 -416q0 -6 1 -12q0 -444 -557 -444h-20h-712zM232 -24h552h20q444 0 445 337q0 11 -1 23q-8 368 -520 376h-496v-736zM232 800h496q448 0 448 332v12q1 11 1 22q0 306 -428 306h-21h-496 v-672z" />
<glyph unicode="C" horiz-adv-x="1688" d="M80 704q40 848 800 888q528 -16 696 -504h-144q-112 400 -560 416q-600 -64 -648 -792q32 -712 680 -760q488 8 704 488v-160q-196 -416 -716 -416h-20q-752 56 -792 840z" />
<glyph unicode="D" horiz-adv-x="1600" d="M104 -104v1672h632q792 -16 808 -840q1 -24 0 -46q0 -786 -778 -787q-22 0 -46 1h-616zM240 -16h472q22 -1 42 -1q646 0 646 704v33q0 752 -680 760h-480v-1496z" />
<glyph unicode="E" horiz-adv-x="1480" d="M128 -104v1672h1280v-88h-1144v-680h1080v-88h-1080v-728h1144v-88h-1280z" />
<glyph unicode="F" horiz-adv-x="1368" d="M120 -112v1680h1176v-96h-1040v-672h992v-88h-992v-824h-136z" />
<glyph unicode="G" horiz-adv-x="1776" d="M80 712q32 832 824 872h18q585 0 758 -504h-152q-136 408 -632 416q-632 -48 -672 -784q40 -712 720 -760q424 0 600 248v456h-600v88h736v-600q-226 -280 -709 -280h-27q-824 48 -864 848z" />
<glyph unicode="H" horiz-adv-x="1592" d="M120 -104v1672h136v-768h1088v768h128v-1672h-128v816h-1088v-816h-136z" />
<glyph unicode="I" horiz-adv-x="336" d="M96 -104v1672h136v-1672h-136z" />
<glyph unicode="J" horiz-adv-x="1144" d="M80 120v136q164 -304 449 -304h15q13 -1 25 -1q335 0 335 406v19v1184h136v-1168v-17q0 -511 -474 -511h-14h-19q-305 0 -453 256z" />
<glyph unicode="K" horiz-adv-x="1568" d="M112 -104v1672h136v-1024l1072 1024h192l-760 -704l800 -968h-168l-720 888l-416 -400v-488h-136z" />
<glyph unicode="L" horiz-adv-x="1272" d="M120 -104v1672h136v-1584h952v-88h-1088z" />
<glyph unicode="M" horiz-adv-x="1912" d="M128 -104v1672h224l616 -1528l600 1528h224v-1672h-136v1576l-640 -1568h-112l-640 1568v-1576h-136z" />
<glyph unicode="N" horiz-adv-x="1624" d="M136 -112v1680h128l1104 -1496v1496h136v-1680h-136l-1104 1488v-1488h-128z" />
<glyph unicode="O" horiz-adv-x="1840" d="M96 712q40 840 848 880q760 -56 816 -872q-32 -824 -840 -856q-784 40 -824 848zM232 720q40 -720 688 -768q672 32 696 768q-32 728 -680 784q-656 -56 -704 -784z" />
<glyph unicode="P" horiz-adv-x="1496" d="M120 -104v1672h744q552 -16 568 -488v-13q0 -491 -574 -491h-18h-584v-680h-136zM256 664h552q18 -1 35 -1q453 0 453 391v26q0 400 -488 400h-552v-816z" />
<glyph unicode="Q" horiz-adv-x="1816" d="M72 720q40 824 848 872q768 -48 824 -872q-16 -696 -640 -832l456 -440h-192l-416 424q-832 8 -880 848zM216 720q32 -720 680 -760q680 24 704 760q-40 736 -680 784q-656 -56 -704 -784z" />
<glyph unicode="R" horiz-adv-x="1672" d="M152 -104v1672h800q568 -8 576 -464v-13q0 -427 -520 -443l656 -752h-168l-648 752h-560v-752h-136zM288 736h616h21q468 0 467 345v23q-8 376 -488 376h-616v-744z" />
<glyph unicode="S" horiz-adv-x="1520" d="M80 240v136q251 -424 719 -424h17q488 8 504 368v9q0 304 -544 375q-632 71 -632 431v9q24 424 608 440h19q551 0 653 -464h-136q-112 368 -528 376q-456 -16 -472 -352q-1 -11 -1 -23q0 -252 521 -313q656 -87 656 -479v-9q-24 -440 -640 -456h-21q-496 0 -723 376z" />
<glyph unicode="T" horiz-adv-x="1496" d="M64 1480v88h1376v-88h-624v-1584h-128v1584h-624z" />
<glyph unicode="U" horiz-adv-x="1584" d="M112 584v984h136v-1008q0 -608 552 -608q21 -1 41 -1q512 0 511 575v34v1008h128v-984q1 -24 0 -48q0 -673 -644 -673q-22 0 -44 1h-15q-665 0 -665 703v17z" />
<glyph unicode="V" horiz-adv-x="1624" d="M24 1568h144l656 -1568l648 1568h144l-728 -1672h-144z" />
<glyph unicode="W" horiz-adv-x="2280" d="M24 1568h136l440 -1544l456 1544h160l440 -1528l456 1528h144l-528 -1672h-136l-456 1528l-472 -1528h-136z" />
<glyph unicode="X" horiz-adv-x="1624" d="M16 -104l720 864l-640 808h168l552 -736l568 736h168l-656 -808l712 -864h-168l-624 776l-632 -776h-168z" />
<glyph unicode="Y" horiz-adv-x="1632" d="M32 1568h160l624 -856l640 856h160l-736 -960v-712h-136v712z" />
<glyph unicode="Z" horiz-adv-x="1488" d="M56 -16l1176 1496h-1128v88h1296v-88l-1184 -1496h1216v-88h-1376v88z" />
<glyph unicode="[" horiz-adv-x="576" d="M96 -288v1960h432v-96h-312v-1776h312v-88h-432z" />
<glyph unicode="\" horiz-adv-x="648" d="M24 1664h128l480 -1944h-128z" />
<glyph unicode="]" horiz-adv-x="568" d="M56 -200h312v1776h-304v96h424v-1960h-432v88z" />
<glyph unicode="^" horiz-adv-x="1048" d="M16 672l456 920h112l456 -928h-136l-376 792l-376 -784h-136z" />
<glyph unicode="_" horiz-adv-x="1440" d="M56 16h1336v-72h-1336v72z" />
<glyph unicode="`" horiz-adv-x="496" d="M8 1664h208l264 -408h-104z" />
<glyph unicode="a" horiz-adv-x="1256" d="M72 224q8 416 584 416h360q-8 384 -354 384h-14h-18q-313 0 -406 -280h-128q94 368 541 368h19q488 0 488 -424v-824h-552q-504 8 -520 360zM216 240q0 -288 392 -288h408v600h-368q-432 0 -432 -312z" />
<glyph unicode="b" horiz-adv-x="1248" d="M120 -128v1808h128v-568h336q584 -16 600 -624q0 -616 -608 -616h-456zM248 -40h288q504 0 504 497v31q-8 528 -496 536h-296v-1064z" />
<glyph unicode="c" horiz-adv-x="1232" d="M104 472q16 608 536 632q416 -8 512 -376h-128q-88 288 -376 288q-400 -16 -408 -536q16 -504 456 -528q312 8 464 312v-144q-148 -256 -491 -256h-21q-528 16 -544 608z" />
<glyph unicode="d" horiz-adv-x="1256" d="M72 488q8 608 600 624h336v568h128v-1808h-456q-600 8 -608 616zM216 488q0 -528 489 -528h15h288v1064h-288q-496 -16 -504 -536z" />
<glyph unicode="e" horiz-adv-x="1336" d="M96 472q16 616 584 640q560 -8 560 -664h-1000q24 -480 496 -496q328 0 488 264v-128q-152 -224 -520 -224q-592 24 -608 608zM240 536h864q-16 472 -424 488q-384 -24 -440 -488z" />
<glyph unicode="f" horiz-adv-x="824" d="M72 1000v88l240 8v248q0 336 336 336h208v-88h-176q-232 0 -232 -248v-248h312v-88h-312v-1112h-136v1112z" />
<glyph unicode="g" horiz-adv-x="1336" d="M72 488q24 592 648 616h496v-1104q1 -23 1 -45q0 -556 -556 -556q-22 0 -45 1q-304 8 -488 184v88q208 -176 504 -184q15 -1 30 -1q419 0 419 419q0 15 -1 30h-368q-632 8 -640 552zM216 496q0 -488 544 -488h320v1008h-312q-528 -24 -552 -520z" />
<glyph unicode="h" horiz-adv-x="1208" d="M112 -104v1776h136v-568h360q504 0 505 -427q0 -7 -1 -13v-768h-136v752q1 14 1 27q0 341 -376 342q-16 0 -33 -1h-320v-1120h-136z" />
<glyph unicode="i" horiz-adv-x="360" d="M112 -112v1192h136v-1192h-136zM112 1416v152h136v-152h-136z" />
<glyph unicode="j" horiz-adv-x="408" d="M-176 -480q88 -40 176 -40h10q134 0 134 208v1392h128v-1400v-18q0 -270 -235 -270h-13q-96 0 -200 48v80zM144 1416v152h128v-152h-128z" />
<glyph unicode="k" horiz-adv-x="1232" d="M136 -96v1768h136v-1192l688 616h184l-536 -464l584 -728h-160l-512 648l-248 -224v-424h-136z" />
<glyph unicode="l" horiz-adv-x="368" d="M120 -96v1768h136v-1768h-136z" />
<glyph unicode="m" horiz-adv-x="1880" d="M104 -112v1216h1264q400 0 408 -352v-864h-128v848v14q0 267 -303 266h-17h-320v-1128h-136v904q0 224 -248 224h-384v-1128h-136z" />
<glyph unicode="n" horiz-adv-x="1216" d="M120 -112v1216h584q408 0 408 -376v-840h-128v840q-8 288 -328 288h-408v-1128h-128z" />
<glyph unicode="o" horiz-adv-x="1280" d="M64 464q24 632 600 648q528 -32 560 -624q-8 -616 -584 -624q-544 32 -576 600zM200 472q16 -488 448 -520q424 24 440 528q-24 512 -440 544q-432 -16 -448 -552z" />
<glyph unicode="p" horiz-adv-x="1264" d="M120 -600v1704h456q608 -8 608 -616v-16q-8 -600 -600 -608h-336v-464h-128zM248 -48h296q496 8 504 520q0 544 -497 544h-15h-288v-1064z" />
<glyph unicode="q" horiz-adv-x="1256" d="M72 472q8 624 608 632h464v-1704h-136v464h-328q-600 16 -608 608zM216 472q8 -512 504 -520h288v1064h-288q-504 0 -504 -544z" />
<glyph unicode="r" horiz-adv-x="800" d="M104 -128v864q8 360 344 368h328v-88h-304q-224 -8 -232 -240v-904h-136z" />
<glyph unicode="s" horiz-adv-x="1128" d="M56 88v104q216 -240 520 -240q360 0 360 240v8q0 185 -352 240q-482 60 -482 305q0 15 2 31q24 320 440 336q408 0 488 -344h-128q-64 248 -344 248q-304 -8 -320 -240q-1 -7 -1 -14q0 -172 385 -226q449 -54 448 -318v-18q0 -336 -488 -336q-328 0 -528 224z" />
<glyph unicode="t" horiz-adv-x="696" d="M40 1000v88h200v488h128v-488h264v-88h-264v-880v-16q0 -145 126 -145q12 0 26 1q64 0 136 40v-80q-64 -56 -184 -56h-14q-218 0 -218 239v17v880h-200z" />
<glyph unicode="u" horiz-adv-x="1208" d="M104 272v808h136v-792q-1 -19 -1 -36q0 -292 357 -293q18 0 36 1h344v1120h128v-1208h-536q-464 0 -464 387v13z" />
<glyph unicode="v" horiz-adv-x="1168" d="M32 1088h144l408 -1080l424 1080h144l-496 -1192h-144z" />
<glyph unicode="w" horiz-adv-x="1736" d="M24 1088h144l344 -1056l288 1056h144l288 -1056l344 1056h144l-432 -1192h-144l-264 1000l-304 -1000h-128z" />
<glyph unicode="x" horiz-adv-x="1168" d="M16 -104l504 592l-456 600h160l368 -512l376 512h160l-456 -592l480 -600h-160l-392 512l-424 -512h-160z" />
<glyph unicode="y" horiz-adv-x="1200" d="M32 1080h144l432 -1032l416 1032h144l-520 -1224q-185 -467 -391 -467q-17 0 -33 3q-120 0 -184 56v80q88 -48 168 -48q6 -1 13 -1l275 329l48 112z" />
<glyph unicode="z" horiz-adv-x="1184" d="M48 -16l888 1008h-856v96h1024v-96l-888 -1008h920v-88h-1088v88z" />
<glyph unicode="{" horiz-adv-x="744" d="M56 640v80q264 8 256 216v504q0 248 296 248h72v-80h-64q-200 16 -184 -176v-512q-8 -192 -200 -240q200 -56 200 -240v-496q-24 -192 184 -176h64v-80h-72q-312 -16 -296 248v480q8 216 -256 224z" />
<glyph unicode="|" horiz-adv-x="296" d="M88 -384v2144h120v-2144h-120z" />
<glyph unicode="}" horiz-adv-x="728" d="M72 -232h64q216 -16 192 176v496q-8 184 200 240q-200 48 -200 240v512q16 184 -184 176h-72v80h72q296 0 296 -248v-504q-8 -208 256 -216v-80q-264 -8 -256 -224v-480q16 -264 -296 -248h-72v80z" />
<glyph unicode="~" horiz-adv-x="1344" d="M40 616v112q160 120 336 112q136 0 328 -72q168 -80 280 -72q184 8 304 120v-112q-120 -112 -304 -112q-136 0 -320 80q-144 72 -296 72q-176 0 -328 -128z" />
<glyph unicode="&#xa4;" d="M200 1360h184l200 -208q168 128 424 128t424 -136l216 216h184l-312 -304q144 -184 144 -432q0 -256 -168 -440l288 -288h-184l-200 208q-168 -112 -408 -112q-208 0 -368 88l-184 -184h-184l272 264q-192 192 -192 464q8 272 152 440zM472 616q48 -512 520 -552 q504 32 536 552q-40 528 -520 576q-512 -24 -536 -576z" />
<glyph unicode="&#xa7;" d="M552 704q8 216 312 344q-288 72 -288 272q16 336 456 352q240 0 384 -72v-128q-160 120 -376 112q-304 -8 -320 -248q-32 -160 424 -264q360 -96 360 -312q16 -224 -288 -320q296 -112 288 -280q-16 -336 -512 -344q-184 -8 -376 80v104q216 -88 368 -88q368 8 376 224 q-8 200 -360 248q-440 56 -448 320zM680 712q0 -192 360 -240q336 72 336 272q-16 216 -376 264q-312 -96 -320 -296z" />
<glyph unicode="&#xa8;" d="M776 1272v168h152v-168h-152zM1120 1272v168h152v-168h-152z" />
<glyph unicode="&#xad;" horiz-adv-x="1192" d="M48 704v88h1096v-88h-1096z" />
<glyph unicode="&#xb0;" d="M112 1312q16 296 312 312q304 -16 320 -312q-8 -304 -320 -312q-288 24 -312 312zM192 1320q16 -224 240 -240q216 8 224 240q-8 216 -224 224q-224 -16 -240 -224z" />
<glyph unicode="&#xb1;" d="M408 -8h1224v72h-1224v-72zM416 824v88h552v536h112v-536h560v-88h-560v-544h-112v544h-552z" />
<glyph unicode="&#xb7;" d="M920 616v208h200v-208h-200z" />
<glyph unicode="&#xd7;" d="M408 160l544 560l-528 552h144l456 -472l448 472h144l-520 -552l536 -560h-144l-464 488l-472 -488h-144z" />
<glyph unicode="&#xe0;" d="M504 480q16 616 584 632h320v40l136 -8v-1280h-448q-584 8 -592 616zM640 480q8 -528 496 -528h272v1072h-272q-488 -16 -496 -544zM848 1552h176l200 -304h-88z" />
<glyph unicode="&#xe1;" d="M504 480q16 616 584 632h320v40l136 -8v-1280h-448q-584 8 -592 616zM640 480q8 -528 496 -528h272v1072h-272q-488 -16 -496 -544zM880 1248l200 304h176l-288 -304h-88z" />
<glyph unicode="&#xe8;" d="M464 472q24 616 568 640q536 -8 544 -664h-968q24 -488 472 -496q320 -8 480 264v-128q-144 -224 -504 -224q-576 24 -592 608zM608 536h832q-16 472 -408 488q-376 -16 -424 -488zM840 1552h176l200 -304h-88z" />
<glyph unicode="&#xe9;" d="M464 472q24 616 568 640q536 -8 544 -664h-968q24 -488 472 -496q320 -8 480 264v-128q-144 -224 -504 -224q-576 24 -592 608zM608 536h832q-16 472 -408 488q-376 -16 -424 -488zM880 1248l200 304h176l-288 -304h-88z" />
<glyph unicode="&#xea;" d="M464 472q24 616 568 640q536 -8 544 -664h-968q24 -488 472 -496q320 -8 480 264v-128q-144 -224 -504 -224q-576 24 -592 608zM608 536h832q-16 472 -408 488q-376 -16 -424 -488zM704 1248l232 280h168l240 -280h-144l-176 216l-176 -216h-144z" />
<glyph unicode="&#xec;" d="M840 1552h176l200 -304h-88zM960 -112v1192h128v-1192h-128z" />
<glyph unicode="&#xed;" d="M880 1248l200 304h176l-288 -304h-88zM960 -112v1192h128v-1192h-128z" />
<glyph unicode="&#xf2;" d="M464 464q16 632 576 648q512 -32 544 -624q-8 -616 -568 -624q-528 32 -552 600zM592 472q16 -488 432 -520q416 24 432 528q-24 512 -432 544q-416 -16 -432 -552zM840 1552h176l200 -304h-88z" />
<glyph unicode="&#xf3;" d="M464 464q16 632 576 648q512 -32 544 -624q-8 -616 -568 -624q-528 32 -552 600zM592 472q16 -488 432 -520q416 24 432 528q-24 512 -432 544q-416 -16 -432 -552zM880 1248l200 304h176l-288 -304h-88z" />
<glyph unicode="&#xf7;" d="M392 680v88h1264v-88h-1264zM928 56v200h192v-200h-192zM928 1168v200h192v-200h-192z" />
<glyph unicode="&#xf9;" d="M536 272v808h128v-792q-16 -344 384 -328h328v1120h128v-1208h-520q-456 -8 -448 400zM840 1552h176l200 -304h-88z" />
<glyph unicode="&#xfa;" d="M536 272v808h128v-792q-16 -344 384 -328h328v1120h128v-1208h-520q-456 -8 -448 400zM880 1248l200 304h176l-288 -304h-88z" />
<glyph unicode="&#xfc;" d="M536 272v808h128v-792q-16 -344 384 -328h328v1120h128v-1208h-520q-456 -8 -448 400zM768 1208v184h152v-184h-152zM1120 1208v184h152v-184h-152z" />
<glyph unicode="&#x2000;" horiz-adv-x="892" vert-adv-y="0" />
<glyph unicode="&#x2001;" horiz-adv-x="1784" vert-adv-y="0" />
<glyph unicode="&#x2002;" horiz-adv-x="892" vert-adv-y="0" />
<glyph unicode="&#x2003;" horiz-adv-x="1784" vert-adv-y="0" />
<glyph unicode="&#x2004;" horiz-adv-x="594" vert-adv-y="0" />
<glyph unicode="&#x2005;" horiz-adv-x="446" vert-adv-y="0" />
<glyph unicode="&#x2006;" horiz-adv-x="297" vert-adv-y="0" />
<glyph unicode="&#x2007;" horiz-adv-x="297" vert-adv-y="0" />
<glyph unicode="&#x2008;" horiz-adv-x="223" vert-adv-y="0" />
<glyph unicode="&#x2009;" horiz-adv-x="356" vert-adv-y="0" />
<glyph unicode="&#x200a;" horiz-adv-x="99" vert-adv-y="0" />
<glyph unicode="&#x2010;" horiz-adv-x="1192" d="M48 704v88h1096v-88h-1096z" />
<glyph unicode="&#x2011;" horiz-adv-x="1192" d="M48 704v88h1096v-88h-1096z" />
<glyph unicode="&#x2012;" horiz-adv-x="1192" d="M48 704v88h1096v-88h-1096z" />
<glyph unicode="&#x2013;" horiz-adv-x="1120" d="M48 704v88h1024v-88h-1024z" />
<glyph unicode="&#x2014;" d="M0 672v88h2056v-88h-2056z" />
<glyph unicode="&#x2018;" d="M1368 968v216q0 344 304 520v-88q-216 -144 -208 -408h144v-240h-240z" />
<glyph unicode="&#x2019;" d="M376 960v88q208 152 200 416h-136v232h232v-208q8 -352 -296 -528z" />
<glyph unicode="&#x201c;" d="M1144 968v216q-8 344 312 520v-88q-216 -144 -208 -408h136v-240h-240zM1584 968v216q0 344 304 520v-88q-208 -152 -208 -408h144v-240h-240z" />
<glyph unicode="&#x201d;" d="M152 960v88q216 160 208 416h-144v232h240v-208q8 -352 -304 -528zM592 960v88q208 152 200 416h-136v232h240v-208q8 -352 -304 -528z" />
<glyph unicode="&#x2026;" d="M248 616v208h192v-208h-192zM928 616v208h192v-208h-192zM1608 616v208h192v-208h-192z" />
<glyph unicode="&#x202f;" horiz-adv-x="356" vert-adv-y="0" />
<glyph unicode="&#x205f;" horiz-adv-x="446" vert-adv-y="0" />
<glyph unicode="&#x20ac;" horiz-adv-x="1552" d="M40 512v96h184v112t8 128h-192v88h200q144 624 648 656q464 16 632 -376h-152q-144 288 -480 288q-384 -40 -504 -568h840v-88h-856v-112v-128h856v-96h-840q96 -544 568 -560q360 -8 552 288v-120q-184 -264 -592 -256q-568 32 -672 648h-200z" />
<glyph unicode="&#x25fc;" horiz-adv-x="1080" vert-adv-y="2160" d="M0 0v1080h1080v-1080h-1080z" />
</font>
</defs>
</svg>
